<svg width="28" height="23" viewBox="0 0 28 23" fill="none" xmlns="http://www.w3.org/2000/svg">
<path d="M10.8241 13.337V22.976H0.824402V15.3663C0.824402 11.2463 1.37706 8.26388 2.48238 6.41909C3.93311 3.95938 6.2301 2.09923 9.37335 0.838623L11.6531 4.06699C9.7533 4.77416 8.35438 5.83491 7.45631 7.24925C6.55824 8.63283 6.05739 10.6621 5.95377 13.337H10.8241ZM26.8857 13.337V22.976H16.8861V15.3663C16.8861 11.2463 17.4387 8.26388 18.544 6.41909C19.9948 3.95938 22.2918 2.09923 25.435 0.838623L27.7147 4.06699C25.815 4.77416 24.416 5.83491 23.518 7.24925C22.6199 8.63283 22.119 10.6621 22.0154 13.337H26.8857Z" fill="#146C94"/>
</svg>
