<svg width="100" height="100" viewBox="0 0 100 100" fill="none" xmlns="http://www.w3.org/2000/svg">
<g id="6 1">
<g id="Clip path group">
<mask id="mask0_60_10911" style="mask-type:luminance" maskUnits="userSpaceOnUse" x="11" y="26" width="78" height="63">
<g id="c34e27481c">
<path id="Vector" d="M11.6958 26.6665H88.2958V88.3675H11.6958V26.6665Z" fill="white"/>
</g>
</mask>
<g mask="url(#mask0_60_10911)">
<g id="Group">
<path id="Vector_2" fill-rule="evenodd" clip-rule="evenodd" d="M69.2959 47.2707C69.2959 44.0499 72.4178 41.4395 76.2699 41.4395C80.1209 41.4395 83.2428 44.0509 83.2428 47.2707C83.2428 50.4926 80.1209 53.1041 76.2699 53.1041C72.4178 53.1041 69.2959 50.4926 69.2959 47.2707ZM79.0741 55.4666C62.497 71.3718 72.9866 55.9937 60.5626 26.9312C69.5084 95.5572 7.40426 95.7468 13.7251 58.1822C-0.768657 100.441 66.7897 100.297 88.2855 45.2197C84.1907 49.2218 81.6418 53.002 79.0741 55.4666Z" fill="#19A7CE"/>
</g>
</g>
</g>
<path id="Vector_3" fill-rule="evenodd" clip-rule="evenodd" d="M23.7081 65.3648H16.6592C16.8842 68.1377 17.6144 70.8752 19.0769 73.3304C20.204 75.2252 21.7561 76.8992 23.7081 78.1523V65.3638V65.3648Z" fill="#146C94"/>
<path id="Vector_4" fill-rule="evenodd" clip-rule="evenodd" d="M25.7739 54.8501V79.2501C26.4375 79.5366 27.1364 79.7803 27.8718 79.9741C30.1885 80.5866 32.5802 80.6407 34.9 80.2543V54.8501H25.7739Z" fill="#146C94"/>
<path id="Vector_5" fill-rule="evenodd" clip-rule="evenodd" d="M36.9668 45.6333V79.7885C37.4303 79.6562 37.8908 79.5083 38.3439 79.3437C41.3147 78.2646 43.9043 76.5541 46.0928 74.5458V45.6343H36.9668V45.6333Z" fill="#146C94"/>
<path id="Vector_6" fill-rule="evenodd" clip-rule="evenodd" d="M48.1582 32.5283V72.4367C48.4811 72.071 48.7926 71.7012 49.0915 71.3252C53.6467 65.6294 56.127 58.5502 57.2842 51.2075V32.5283H48.1582Z" fill="#146C94"/>
<g id="Clip path group_2">
<mask id="mask1_60_10911" style="mask-type:luminance" maskUnits="userSpaceOnUse" x="13" y="11" width="63" height="52">
<g id="fc714cb33c">
<path id="Vector_7" d="M13.8667 11.5679H75.4667V62.1335H13.8667V11.5679Z" fill="white"/>
</g>
</mask>
<g mask="url(#mask1_60_10911)">
<g id="Group_2">
<path id="Vector_8" d="M15.9482 61.6115C15.5211 62.0677 14.8055 62.0917 14.3482 61.6646C13.8919 61.2375 13.868 60.5219 14.2951 60.0656L22.543 51.2562C22.7659 51.0177 23.0669 50.8979 23.369 50.8979V50.8917H31.0482V42.65C31.0482 42.0219 31.5576 41.5135 32.1857 41.5135H43.1357V29.5052C43.1357 28.8781 43.6451 28.3687 44.2732 28.3687H54.6471L67.5336 16.7781L65.1784 14.3437H65.1794C65.0409 14.201 64.9461 14.0135 64.918 13.8021C64.8492 13.276 65.2211 12.7927 65.7482 12.725L74.2305 11.5906C74.3503 11.5646 74.4784 11.5604 74.6076 11.5833C75.1315 11.6771 75.4815 12.1781 75.3878 12.7021L73.8794 21.1406H73.8774C73.843 21.3333 73.7492 21.5177 73.5971 21.6646C73.2138 22.0333 72.6044 22.0208 72.2357 21.6385L69.1138 18.4114L55.8867 30.3073C55.6805 30.5146 55.3951 30.6427 55.0805 30.6427H45.4107V42.65C45.4107 43.2781 44.9013 43.7875 44.2732 43.7875H33.3232V52.0292C33.3232 52.6562 32.8138 53.1656 32.1857 53.1656H23.8544L15.9471 61.6115H15.9482Z" fill="#AFD3E2"/>
</g>
</g>
</g>
</g>
</svg>
