<svg width="253" height="61" viewBox="0 0 253 61" fill="none" xmlns="http://www.w3.org/2000/svg">
<mask id="mask0_0_472" style="mask-type:luminance" maskUnits="userSpaceOnUse" x="7" y="16" width="46" height="38">
<path d="M7.01752 16.5H52.9775V53.5206H7.01752V16.5Z" fill="white"/>
</mask>
<g mask="url(#mask0_0_472)">
<path fill-rule="evenodd" clip-rule="evenodd" d="M41.5775 28.8624C41.5775 26.9299 43.4507 25.3637 45.7619 25.3637C48.0725 25.3637 49.9457 26.9306 49.9457 28.8624C49.9457 30.7956 48.0725 32.3624 45.7619 32.3624C43.4507 32.3624 41.5775 30.7956 41.5775 28.8624ZM47.4444 33.7799C37.4982 43.3231 43.7919 34.0962 36.3375 16.6587C41.705 57.8343 4.44254 57.9481 8.23504 35.4093C-0.461206 60.7643 40.0738 60.6781 52.9713 27.6318C50.5144 30.0331 48.985 32.3012 47.4444 33.7799Z" fill="#19A7CE"/>
</g>
<path fill-rule="evenodd" clip-rule="evenodd" d="M14.225 39.7188H9.99561C10.1306 41.3825 10.5687 43.025 11.4462 44.4981C12.1225 45.635 13.0537 46.6394 14.225 47.3913V39.7181V39.7188Z" fill="#146C94"/>
<path fill-rule="evenodd" clip-rule="evenodd" d="M15.4644 33.41V48.05C15.8625 48.2219 16.2819 48.3682 16.7231 48.4844C18.1131 48.8519 19.5481 48.8844 20.94 48.6525V33.41H15.4644Z" fill="#146C94"/>
<path fill-rule="evenodd" clip-rule="evenodd" d="M22.18 27.88V48.3731C22.4581 48.2938 22.7344 48.205 23.0062 48.1063C24.7887 47.4588 26.3425 46.4325 27.6556 45.2275V27.8806H22.18V27.88Z" fill="#146C94"/>
<path fill-rule="evenodd" clip-rule="evenodd" d="M28.895 20.0168V43.9618C29.0888 43.7425 29.2756 43.5206 29.455 43.295C32.1881 39.8775 33.6763 35.63 34.3706 31.2243V20.0168H28.895Z" fill="#146C94"/>
<mask id="mask1_0_472" style="mask-type:luminance" maskUnits="userSpaceOnUse" x="8" y="7" width="38" height="31">
<path d="M8.32001 7.44067H45.28V37.7801H8.32001V7.44067Z" fill="white"/>
</mask>
<g mask="url(#mask1_0_472)">
<path d="M9.56874 37.4668C9.31249 37.7405 8.88312 37.7549 8.60874 37.4986C8.33499 37.2424 8.32062 36.813 8.57687 36.5393L13.5256 31.2536C13.6594 31.1105 13.84 31.0386 14.0212 31.0386V31.0349H18.6287V26.0899C18.6287 25.713 18.9344 25.408 19.3112 25.408H25.8812V18.203C25.8812 17.8268 26.1869 17.5211 26.5637 17.5211H32.7881L40.52 10.5668L39.1069 9.10615H39.1075C39.0244 9.02052 38.9675 8.90802 38.9506 8.78115C38.9094 8.46552 39.1325 8.17552 39.4487 8.1349L44.5381 7.45427C44.61 7.43865 44.6869 7.43615 44.7644 7.4499C45.0787 7.50615 45.2887 7.80677 45.2325 8.12115L44.3275 13.1843H44.3262C44.3056 13.2999 44.2494 13.4105 44.1581 13.4986C43.9281 13.7199 43.5625 13.7124 43.3412 13.483L41.4681 11.5468L33.5319 18.6843C33.4081 18.8086 33.2369 18.8855 33.0481 18.8855H27.2462V26.0899C27.2462 26.4668 26.9406 26.7724 26.5637 26.7724H19.9937V31.7174C19.9937 32.0936 19.6881 32.3993 19.3112 32.3993H14.3125L9.56812 37.4668H9.56874Z" fill="#AFD3E2"/>
</g>
<path d="M68.172 39.312C66.828 39.312 65.648 38.984 64.632 38.328C63.624 37.672 62.84 36.792 62.28 35.688C61.72 34.576 61.44 33.344 61.44 31.992V22.2H64.368V31.992C64.368 32.792 64.516 33.528 64.812 34.2C65.116 34.864 65.548 35.396 66.108 35.796C66.676 36.188 67.364 36.384 68.172 36.384C68.988 36.384 69.676 36.188 70.236 35.796C70.796 35.396 71.22 34.864 71.508 34.2C71.804 33.528 71.952 32.792 71.952 31.992V22.2H74.88V31.992C74.88 33.008 74.72 33.96 74.4 34.848C74.08 35.728 73.624 36.504 73.032 37.176C72.44 37.848 71.732 38.372 70.908 38.748C70.092 39.124 69.18 39.312 68.172 39.312ZM83.8005 39.312C82.8725 39.312 81.9805 39.168 81.1245 38.88C80.2765 38.584 79.5325 38.164 78.8925 37.62C78.2525 37.068 77.7925 36.408 77.5125 35.64L80.2605 34.632C80.3725 34.952 80.6005 35.244 80.9445 35.508C81.2885 35.772 81.7085 35.984 82.2045 36.144C82.7005 36.304 83.2325 36.384 83.8005 36.384C84.3845 36.384 84.9285 36.296 85.4325 36.12C85.9445 35.936 86.3565 35.684 86.6685 35.364C86.9805 35.036 87.1365 34.656 87.1365 34.224C87.1365 33.784 86.9725 33.424 86.6445 33.144C86.3165 32.856 85.8965 32.628 85.3845 32.46C84.8725 32.292 84.3445 32.164 83.8005 32.076C82.6085 31.892 81.5405 31.608 80.5965 31.224C79.6525 30.84 78.9045 30.308 78.3525 29.628C77.8085 28.948 77.5365 28.068 77.5365 26.988C77.5365 25.972 77.8285 25.084 78.4125 24.324C78.9965 23.564 79.7645 22.972 80.7165 22.548C81.6685 22.124 82.6965 21.912 83.8005 21.912C84.7205 21.912 85.6085 22.056 86.4645 22.344C87.3205 22.632 88.0685 23.052 88.7085 23.604C89.3565 24.156 89.8205 24.82 90.1005 25.596L87.3405 26.592C87.2285 26.272 87.0005 25.98 86.6565 25.716C86.3125 25.452 85.8925 25.244 85.3965 25.092C84.9005 24.932 84.3685 24.852 83.8005 24.852C83.2325 24.844 82.6925 24.936 82.1805 25.128C81.6765 25.312 81.2645 25.564 80.9445 25.884C80.6245 26.204 80.4645 26.572 80.4645 26.988C80.4645 27.524 80.6125 27.928 80.9085 28.2C81.2125 28.472 81.6165 28.672 82.1205 28.8C82.6245 28.92 83.1845 29.032 83.8005 29.136C84.9205 29.312 85.9565 29.608 86.9085 30.024C87.8605 30.44 88.6245 30.996 89.2005 31.692C89.7765 32.38 90.0645 33.224 90.0645 34.224C90.0645 35.24 89.7765 36.132 89.2005 36.9C88.6245 37.66 87.8605 38.252 86.9085 38.676C85.9565 39.1 84.9205 39.312 83.8005 39.312ZM97.1497 22.2H100.522L106.63 39H103.522L102.442 36.024H95.2418L94.1618 39H91.0538L97.1497 22.2ZM96.3098 33.096H101.362L98.8298 26.172L96.3098 33.096ZM118.531 22.2H121.459V39H118.531V31.464H111.571V39H108.643V22.2H111.571V28.536H118.531V22.2ZM129.962 22.2H133.334L139.442 39H136.334L135.254 36.024H128.054L126.974 39H123.866L129.962 22.2ZM129.122 33.096H134.174L131.642 26.172L129.122 33.096ZM148.365 39.312C147.229 39.312 146.161 39.088 145.161 38.64C144.161 38.184 143.281 37.556 142.521 36.756C141.761 35.956 141.165 35.032 140.733 33.984C140.301 32.928 140.085 31.8 140.085 30.6C140.085 29.4 140.301 28.276 140.733 27.228C141.165 26.172 141.761 25.244 142.521 24.444C143.281 23.644 144.161 23.02 145.161 22.572C146.161 22.116 147.229 21.888 148.365 21.888C149.509 21.888 150.581 22.116 151.581 22.572C152.581 23.02 153.461 23.644 154.221 24.444C154.981 25.244 155.573 26.172 155.997 27.228C156.429 28.276 156.645 29.4 156.645 30.6C156.645 31.8 156.429 32.928 155.997 33.984C155.573 35.032 154.981 35.956 154.221 36.756C153.461 37.556 152.581 38.184 151.581 38.64C150.581 39.088 149.509 39.312 148.365 39.312ZM148.365 36.384C149.101 36.384 149.793 36.232 150.441 35.928C151.089 35.624 151.657 35.208 152.145 34.68C152.641 34.144 153.025 33.528 153.297 32.832C153.577 32.136 153.717 31.392 153.717 30.6C153.717 29.808 153.577 29.064 153.297 28.368C153.017 27.664 152.629 27.048 152.133 26.52C151.645 25.992 151.077 25.576 150.429 25.272C149.789 24.968 149.101 24.816 148.365 24.816C147.629 24.816 146.937 24.968 146.289 25.272C145.641 25.576 145.069 25.996 144.573 26.532C144.085 27.06 143.701 27.672 143.421 28.368C143.149 29.064 143.013 29.808 143.013 30.6C143.013 31.4 143.153 32.148 143.433 32.844C143.713 33.54 144.097 34.156 144.585 34.692C145.081 35.22 145.649 35.636 146.289 35.94C146.937 36.236 147.629 36.384 148.365 36.384ZM158.823 39V22.2H164.823C165.735 22.2 166.559 22.428 167.295 22.884C168.039 23.34 168.627 23.952 169.059 24.72C169.491 25.488 169.707 26.332 169.707 27.252C169.707 28.196 169.483 29.052 169.035 29.82C168.595 30.58 168.003 31.188 167.259 31.644C166.515 32.092 165.703 32.316 164.823 32.316H161.751V39H158.823ZM161.751 29.388H164.511C164.927 29.388 165.307 29.284 165.651 29.076C165.995 28.868 166.267 28.588 166.467 28.236C166.675 27.884 166.779 27.492 166.779 27.06C166.779 26.62 166.675 26.224 166.467 25.872C166.267 25.52 165.995 25.24 165.651 25.032C165.307 24.824 164.927 24.72 164.511 24.72H161.751V29.388ZM184.269 22.2V25.128H179.133V39H176.205V25.128H171.069V22.2H184.269ZM187.027 39V22.2H189.955V39H187.027ZM193.206 39L196.47 22.2H198.894L202.986 32.964L207.078 22.2H209.502L212.766 39H209.778L207.762 28.608L203.982 38.616H201.978L198.198 28.608L196.194 39H193.206ZM219.986 22.2H223.358L229.466 39H226.358L225.278 36.024H218.078L216.998 39H213.89L219.986 22.2ZM219.146 33.096H224.198L221.666 26.172L219.146 33.096Z" fill="#146C94"/>
</svg>
