<svg width="100" height="100" viewBox="0 0 100 100" fill="none" xmlns="http://www.w3.org/2000/svg">
<mask id="mask0_62_12650" style="mask-type:luminance" maskUnits="userSpaceOnUse" x="11" y="26" width="78" height="63">
<path d="M11.6958 26.6667H88.2958V88.3678H11.6958V26.6667Z" fill="white"/>
</mask>
<g mask="url(#mask0_62_12650)">
<path fill-rule="evenodd" clip-rule="evenodd" d="M69.2959 47.271C69.2959 44.0501 72.4178 41.4397 76.2699 41.4397C80.1209 41.4397 83.2428 44.0512 83.2428 47.271C83.2428 50.4929 80.1209 53.1043 76.2699 53.1043C72.4178 53.1043 69.2959 50.4929 69.2959 47.271ZM79.0741 55.4668C62.497 71.372 72.9866 55.9939 60.5626 26.9314C69.5084 95.5574 7.40426 95.747 13.7251 58.1824C-0.768657 100.441 66.7897 100.297 88.2855 45.2199C84.1907 49.222 81.6418 53.0022 79.0741 55.4668Z" fill="#19A7CE"/>
</g>
<path fill-rule="evenodd" clip-rule="evenodd" d="M23.7084 65.3646H16.6594C16.8844 68.1375 17.6146 70.875 19.0771 73.3302C20.2042 75.225 21.7563 76.8989 23.7084 78.1521V65.3635V65.3646Z" fill="#146C94"/>
<path fill-rule="evenodd" clip-rule="evenodd" d="M25.7739 54.8501V79.2501C26.4375 79.5366 27.1364 79.7803 27.8718 79.9741C30.1885 80.5866 32.5802 80.6407 34.9 80.2543V54.8501H25.7739Z" fill="#146C94"/>
<path fill-rule="evenodd" clip-rule="evenodd" d="M36.9666 45.6333V79.7885C37.4301 79.6562 37.8905 79.5083 38.3436 79.3437C41.3145 78.2646 43.9041 76.5541 46.0926 74.5458V45.6343H36.9666V45.6333Z" fill="#146C94"/>
<path fill-rule="evenodd" clip-rule="evenodd" d="M48.1584 32.5281V72.4364C48.4814 72.0708 48.7928 71.701 49.0918 71.325C53.647 65.6291 56.1272 58.55 57.2845 51.2072V32.5281H48.1584Z" fill="#146C94"/>
<mask id="mask1_62_12650" style="mask-type:luminance" maskUnits="userSpaceOnUse" x="13" y="11" width="63" height="52">
<path d="M13.8667 11.5676H75.4667V62.1332H13.8667V11.5676Z" fill="white"/>
</mask>
<g mask="url(#mask1_62_12650)">
<path d="M15.9479 61.6115C15.5209 62.0677 14.8052 62.0917 14.3479 61.6646C13.8917 61.2375 13.8677 60.5219 14.2948 60.0656L22.5427 51.2562C22.7657 51.0177 23.0667 50.8979 23.3688 50.8979V50.8917H31.0479V42.65C31.0479 42.0219 31.5573 41.5135 32.1854 41.5135H43.1354V29.5052C43.1354 28.8781 43.6448 28.3687 44.2729 28.3687H54.6469L67.5334 16.7781L65.1782 14.3437H65.1792C65.0407 14.201 64.9459 14.0135 64.9177 13.8021C64.849 13.276 65.2209 12.7927 65.7479 12.725L74.2302 11.5906C74.35 11.5646 74.4782 11.5604 74.6073 11.5833C75.1313 11.6771 75.4813 12.1781 75.3875 12.7021L73.8792 21.1406H73.8771C73.8427 21.3333 73.749 21.5177 73.5969 21.6646C73.2136 22.0333 72.6042 22.0208 72.2354 21.6385L69.1136 18.4114L55.8865 30.3073C55.6802 30.5146 55.3948 30.6427 55.0802 30.6427H45.4104V42.65C45.4104 43.2781 44.9011 43.7875 44.2729 43.7875H33.3229V52.0292C33.3229 52.6562 32.8136 53.1656 32.1854 53.1656H23.8542L15.9469 61.6115H15.9479Z" fill="#AFD3E2"/>
</g>
</svg>
