<svg width="163" height="42" viewBox="0 0 163 42" fill="none" xmlns="http://www.w3.org/2000/svg">
<mask id="mask0_60_12989" style="mask-type:luminance" maskUnits="userSpaceOnUse" x="4" y="11" width="33" height="26">
<path d="M4.79492 11.4333H36.2009V36.7308H4.79492V11.4333Z" fill="white"/>
</mask>
<g mask="url(#mask0_60_12989)">
<path fill-rule="evenodd" clip-rule="evenodd" d="M28.4107 19.881C28.4107 18.5604 29.6906 17.4902 31.27 17.4902C32.8489 17.4902 34.1289 18.5609 34.1289 19.881C34.1289 21.2019 32.8489 22.2726 31.27 22.2726C29.6906 22.2726 28.4107 21.2019 28.4107 19.881ZM32.4197 23.2413C25.6231 29.7624 29.9238 23.4574 24.83 11.5417C28.4978 39.6784 3.03509 39.7562 5.62663 24.3547C-0.315804 41.6806 27.3831 41.6217 36.1964 19.0401C34.5175 20.6809 33.4725 22.2308 32.4197 23.2413Z" fill="#19A7CE"/>
</g>
<path fill-rule="evenodd" clip-rule="evenodd" d="M9.72015 27.2995H6.83008C6.92233 28.4364 7.22171 29.5588 7.82134 30.5654C8.28344 31.3423 8.9198 32.0286 9.72015 32.5424V27.2991V27.2995Z" fill="#146C94"/>
<path fill-rule="evenodd" clip-rule="evenodd" d="M10.5674 22.9885V32.9925C10.8394 33.11 11.126 33.2099 11.4275 33.2893C12.3774 33.5405 13.3579 33.5627 14.3091 33.4042V22.9885H10.5674Z" fill="#146C94"/>
<path fill-rule="evenodd" clip-rule="evenodd" d="M15.1562 19.2097V33.2134C15.3463 33.1591 15.5351 33.0985 15.7209 33.031C16.9389 32.5885 18.0006 31.8873 18.8979 31.0638V19.2101H15.1562V19.2097Z" fill="#146C94"/>
<path fill-rule="evenodd" clip-rule="evenodd" d="M19.7451 13.8364V30.1988C19.8775 30.0489 20.0052 29.8973 20.1278 29.7431C21.9954 27.4079 23.0123 24.5054 23.4868 21.4949V13.8364H19.7451Z" fill="#146C94"/>
<mask id="mask1_60_12989" style="mask-type:luminance" maskUnits="userSpaceOnUse" x="5" y="5" width="26" height="21">
<path d="M5.68555 5.24268H30.9415V25.9746H5.68555V5.24268Z" fill="white"/>
</mask>
<g mask="url(#mask1_60_12989)">
<path d="M6.53929 25.7606C6.36419 25.9476 6.07078 25.9575 5.88329 25.7824C5.69623 25.6073 5.6864 25.3139 5.86151 25.1268L9.24315 21.515C9.33455 21.4171 9.45798 21.368 9.58183 21.368V21.3655H12.7303V17.9864C12.7303 17.7289 12.9391 17.5204 13.1967 17.5204H17.6862V12.597C17.6862 12.3399 17.895 12.1311 18.1525 12.1311H22.4059L27.6893 7.37892L26.7237 6.38083H26.7241C26.6673 6.32232 26.6284 6.24544 26.6169 6.15874C26.5887 5.94307 26.7412 5.7449 26.9573 5.71714L30.435 5.25204C30.4841 5.24137 30.5367 5.23966 30.5896 5.24906C30.8045 5.28749 30.948 5.49292 30.9095 5.70774L30.2911 9.16754H30.2903C30.2762 9.24655 30.2377 9.32215 30.1754 9.38237C30.0182 9.53356 29.7684 9.52843 29.6172 9.37169L28.3372 8.04859L22.9141 12.9259C22.8295 13.0109 22.7125 13.0634 22.5835 13.0634H18.6189V17.9864C18.6189 18.2439 18.4101 18.4528 18.1525 18.4528H13.663V21.8318C13.663 22.089 13.4542 22.2978 13.1967 22.2978H9.78085L6.53886 25.7606H6.53929Z" fill="#AFD3E2"/>
</g>
<path d="M51.448 28.208C50.552 28.208 49.7653 27.9893 49.088 27.552C48.416 27.1147 47.8933 26.528 47.52 25.792C47.1467 25.0507 46.96 24.2293 46.96 23.328V16.8H48.912V23.328C48.912 23.8613 49.0107 24.352 49.208 24.8C49.4107 25.2427 49.6987 25.5973 50.072 25.864C50.4507 26.1253 50.9093 26.256 51.448 26.256C51.992 26.256 52.4507 26.1253 52.824 25.864C53.1973 25.5973 53.48 25.2427 53.672 24.8C53.8693 24.352 53.968 23.8613 53.968 23.328V16.8H55.92V23.328C55.92 24.0053 55.8133 24.64 55.6 25.232C55.3867 25.8187 55.0827 26.336 54.688 26.784C54.2933 27.232 53.8213 27.5813 53.272 27.832C52.728 28.0827 52.12 28.208 51.448 28.208ZM61.867 28.208C61.2483 28.208 60.6537 28.112 60.083 27.92C59.5177 27.7227 59.0217 27.4427 58.595 27.08C58.1683 26.712 57.8617 26.272 57.675 25.76L59.507 25.088C59.5817 25.3013 59.7337 25.496 59.963 25.672C60.1923 25.848 60.4723 25.9893 60.803 26.096C61.1337 26.2027 61.4883 26.256 61.867 26.256C62.2563 26.256 62.619 26.1973 62.955 26.08C63.2963 25.9573 63.571 25.7893 63.779 25.576C63.987 25.3573 64.091 25.104 64.091 24.816C64.091 24.5227 63.9817 24.2827 63.763 24.096C63.5443 23.904 63.2643 23.752 62.923 23.64C62.5817 23.528 62.2297 23.4427 61.867 23.384C61.0723 23.2613 60.3603 23.072 59.731 22.816C59.1017 22.56 58.603 22.2053 58.235 21.752C57.8723 21.2987 57.691 20.712 57.691 19.992C57.691 19.3147 57.8857 18.7227 58.275 18.216C58.6643 17.7093 59.1763 17.3147 59.811 17.032C60.4457 16.7493 61.131 16.608 61.867 16.608C62.4803 16.608 63.0723 16.704 63.643 16.896C64.2137 17.088 64.7123 17.368 65.139 17.736C65.571 18.104 65.8803 18.5467 66.067 19.064L64.227 19.728C64.1523 19.5147 64.0003 19.32 63.771 19.144C63.5417 18.968 63.2617 18.8293 62.931 18.728C62.6003 18.6213 62.2457 18.568 61.867 18.568C61.4883 18.5627 61.1283 18.624 60.787 18.752C60.451 18.8747 60.1763 19.0427 59.963 19.256C59.7497 19.4693 59.643 19.7147 59.643 19.992C59.643 20.3493 59.7417 20.6187 59.939 20.8C60.1417 20.9813 60.411 21.1147 60.747 21.2C61.083 21.28 61.4563 21.3547 61.867 21.424C62.6137 21.5413 63.3043 21.7387 63.939 22.016C64.5737 22.2933 65.083 22.664 65.467 23.128C65.851 23.5867 66.043 24.1493 66.043 24.816C66.043 25.4933 65.851 26.088 65.467 26.6C65.083 27.1067 64.5737 27.5013 63.939 27.784C63.3043 28.0667 62.6137 28.208 61.867 28.208ZM70.7665 16.8H73.0145L77.0865 28H75.0145L74.2945 26.016H69.4945L68.7745 28H66.7025L70.7665 16.8ZM70.2065 24.064H73.5745L71.8865 19.448L70.2065 24.064ZM85.0208 16.8H86.9728V28H85.0208V22.976H80.3808V28H78.4288V16.8H80.3808V21.024H85.0208V16.8ZM92.6415 16.8H94.8895L98.9615 28H96.8895L96.1695 26.016H91.3695L90.6495 28H88.5775L92.6415 16.8ZM92.0815 24.064H95.4495L93.7615 19.448L92.0815 24.064ZM104.91 28.208C104.153 28.208 103.441 28.0587 102.774 27.76C102.107 27.456 101.521 27.0373 101.014 26.504C100.507 25.9707 100.11 25.3547 99.822 24.656C99.534 23.952 99.39 23.2 99.39 22.4C99.39 21.6 99.534 20.8507 99.822 20.152C100.11 19.448 100.507 18.8293 101.014 18.296C101.521 17.7627 102.107 17.3467 102.774 17.048C103.441 16.744 104.153 16.592 104.91 16.592C105.673 16.592 106.387 16.744 107.054 17.048C107.721 17.3467 108.307 17.7627 108.814 18.296C109.321 18.8293 109.715 19.448 109.998 20.152C110.286 20.8507 110.43 21.6 110.43 22.4C110.43 23.2 110.286 23.952 109.998 24.656C109.715 25.3547 109.321 25.9707 108.814 26.504C108.307 27.0373 107.721 27.456 107.054 27.76C106.387 28.0587 105.673 28.208 104.91 28.208ZM104.91 26.256C105.401 26.256 105.862 26.1547 106.294 25.952C106.726 25.7493 107.105 25.472 107.43 25.12C107.761 24.7627 108.017 24.352 108.198 23.888C108.385 23.424 108.478 22.928 108.478 22.4C108.478 21.872 108.385 21.376 108.198 20.912C108.011 20.4427 107.753 20.032 107.422 19.68C107.097 19.328 106.718 19.0507 106.286 18.848C105.859 18.6453 105.401 18.544 104.91 18.544C104.419 18.544 103.958 18.6453 103.526 18.848C103.094 19.0507 102.713 19.3307 102.382 19.688C102.057 20.04 101.801 20.448 101.614 20.912C101.433 21.376 101.342 21.872 101.342 22.4C101.342 22.9333 101.435 23.432 101.622 23.896C101.809 24.36 102.065 24.7707 102.39 25.128C102.721 25.48 103.099 25.7573 103.526 25.96C103.958 26.1573 104.419 26.256 104.91 26.256ZM111.882 28V16.8H115.882C116.49 16.8 117.039 16.952 117.53 17.256C118.026 17.56 118.418 17.968 118.706 18.48C118.994 18.992 119.138 19.5547 119.138 20.168C119.138 20.7973 118.989 21.368 118.69 21.88C118.397 22.3867 118.002 22.792 117.506 23.096C117.01 23.3947 116.469 23.544 115.882 23.544H113.834V28H111.882ZM113.834 21.592H115.674C115.951 21.592 116.205 21.5227 116.434 21.384C116.663 21.2453 116.845 21.0587 116.978 20.824C117.117 20.5893 117.186 20.328 117.186 20.04C117.186 19.7467 117.117 19.4827 116.978 19.248C116.845 19.0133 116.663 18.8267 116.434 18.688C116.205 18.5493 115.951 18.48 115.674 18.48H113.834V21.592ZM128.846 16.8V18.752H125.422V28H123.47V18.752H120.046V16.8H128.846ZM130.684 28V16.8H132.636V28H130.684ZM134.804 28L136.98 16.8H138.596L141.324 23.976L144.052 16.8H145.668L147.844 28H145.852L144.508 21.072L141.988 27.744H140.652L138.132 21.072L136.796 28H134.804ZM152.657 16.8H154.905L158.977 28H156.905L156.185 26.016H151.385L150.665 28H148.593L152.657 16.8ZM152.097 24.064H155.465L153.777 19.448L152.097 24.064Z" fill="#146C94"/>
</svg>
